<?xml version="1.0" encoding="utf-8"?>
<svg
	version="1.1"
	xmlns="http://www.w3.org/2000/svg"
	xmlns:xlink="http://www.w3.org/1999/xlink"
	x="0%" y="0%"
	width="100%" height="100%"
	viewBox="0 0 360.0 720.0"
	enable-background="new 0 0 360.0 720.0"
	xml:space="preserve">
<defs>
	<linearGradient id="fillGrad2" x1="78.148%" y1="63.986%" x2="29.263%" y2="71.836%">
   		<stop offset="0.000%" style="stop-color:rgb(191,94,255);stop-opacity:1.000" />
		<stop offset="100.000%" style="stop-color:rgb(103,255,102);stop-opacity:1.000" />
	</linearGradient>

	<linearGradient id="stkGrad3" x1="50.000%" y1="50.000%" x2="100.000%" y2="50.000%">
   		<stop offset="0.000%" style="stop-color:rgb(103,255,102);stop-opacity:1.000" />
		<stop offset="100.000%" style="stop-color:rgb(191,94,255);stop-opacity:1.000" />
	</linearGradient>

	<linearGradient id="stkGrad4" x1="50.000%" y1="50.000%" x2="100.000%" y2="50.000%">
   		<stop offset="0.000%" style="stop-color:rgb(103,255,102);stop-opacity:1.000" />
		<stop offset="100.000%" style="stop-color:rgb(191,94,255);stop-opacity:1.000" />
	</linearGradient>

	<linearGradient id="stkGrad5" x1="50.000%" y1="50.000%" x2="100.000%" y2="50.000%">
   		<stop offset="0.000%" style="stop-color:rgb(103,255,102);stop-opacity:1.000" />
		<stop offset="100.000%" style="stop-color:rgb(191,94,255);stop-opacity:1.000" />
	</linearGradient>

	<linearGradient id="stkGrad6" x1="50.000%" y1="50.000%" x2="100.000%" y2="50.000%">
   		<stop offset="0.000%" style="stop-color:rgb(103,255,102);stop-opacity:1.000" />
		<stop offset="100.000%" style="stop-color:rgb(191,94,255);stop-opacity:1.000" />
	</linearGradient>

	<linearGradient id="stkGrad7" x1="50.000%" y1="50.000%" x2="100.000%" y2="50.000%">
   		<stop offset="0.000%" style="stop-color:rgb(103,255,102);stop-opacity:1.000" />
		<stop offset="100.000%" style="stop-color:rgb(191,94,255);stop-opacity:1.000" />
	</linearGradient>

	<linearGradient id="stkGrad8" x1="50.000%" y1="50.000%" x2="100.000%" y2="50.000%">
   		<stop offset="0.000%" style="stop-color:rgb(103,255,102);stop-opacity:1.000" />
		<stop offset="100.000%" style="stop-color:rgb(191,94,255);stop-opacity:1.000" />
	</linearGradient>

	<linearGradient id="stkGrad9" x1="50.000%" y1="50.000%" x2="100.000%" y2="50.000%">
   		<stop offset="0.000%" style="stop-color:rgb(103,255,102);stop-opacity:1.000" />
		<stop offset="100.000%" style="stop-color:rgb(191,94,255);stop-opacity:1.000" />
	</linearGradient>

	<linearGradient id="stkGrad10" x1="50.000%" y1="50.000%" x2="100.000%" y2="50.000%">
   		<stop offset="0.000%" style="stop-color:rgb(103,255,102);stop-opacity:1.000" />
		<stop offset="100.000%" style="stop-color:rgb(191,94,255);stop-opacity:1.000" />
	</linearGradient>

	<linearGradient id="stkGrad11" x1="50.000%" y1="50.000%" x2="100.000%" y2="50.000%">
   		<stop offset="0.000%" style="stop-color:rgb(103,255,102);stop-opacity:1.000" />
		<stop offset="100.000%" style="stop-color:rgb(191,94,255);stop-opacity:1.000" />
	</linearGradient>

	<linearGradient id="stkGrad12" x1="50.000%" y1="50.000%" x2="100.000%" y2="50.000%">
   		<stop offset="0.000%" style="stop-color:rgb(103,255,102);stop-opacity:1.000" />
		<stop offset="100.000%" style="stop-color:rgb(191,94,255);stop-opacity:1.000" />
	</linearGradient>

</defs>
	<path
		transform = "rotate(-0.00 182.75 30.98)"
		fill="url(#fillGrad2)"
		stroke="#000000"
		fill-opacity="1.0"
		stroke-opacity="1.000"
		fill-rule="nonzero"
		stroke-width="0.0"
		stroke-linejoin="round"
		stroke-linecap="round"
		d="M4.58,0.41Q106.25,121.09,207.48,29.60Q334.49,97.57,360.92,-7.09"/>
	<path
		transform = "rotate(-0.00 280.09 147.97)"
		fill="#000000"
		stroke="url(#stkGrad3)"
		fill-opacity="0.000"
		stroke-opacity="1.0"
		fill-rule="nonzero"
		stroke-width="7.2"
		stroke-linejoin="round"
		stroke-linecap="round"
		d="M280.09,123.33C293.51,123.33,304.39,134.36,304.39,147.97C304.39,161.57,293.51,172.60,280.09,172.60C266.67,172.60,255.79,161.57,255.79,147.97C255.79,134.36,266.67,123.33,280.09,123.33z"/>
	<path
		transform = "rotate(-189.76 118.64 176.71)"
		fill="#000000"
		stroke="url(#stkGrad4)"
		fill-opacity="0.000"
		stroke-opacity="1.0"
		fill-rule="nonzero"
		stroke-width="7.2"
		stroke-linejoin="round"
		stroke-linecap="round"
		d="M118.64,158.27C128.99,158.27,137.38,166.53,137.38,176.71C137.38,186.89,128.99,195.14,118.64,195.14C108.29,195.14,99.91,186.89,99.91,176.71C99.91,166.53,108.29,158.27,118.64,158.27z"/>
	<path
		transform = "rotate(-76.74 207.48 295.87)"
		fill="#000000"
		stroke="url(#stkGrad5)"
		fill-opacity="0.000"
		stroke-opacity="1.0"
		fill-rule="nonzero"
		stroke-width="7.2"
		stroke-linejoin="round"
		stroke-linecap="round"
		d="M207.48,272.13C220.82,272.13,231.64,282.76,231.64,295.87C231.64,308.98,220.82,319.61,207.48,319.61C194.13,319.61,183.31,308.98,183.31,295.87C183.31,282.76,194.13,272.13,207.48,272.13z"/>
	<path
		transform = "rotate(111.19 149.16 424.11)"
		fill="#000000"
		stroke="url(#stkGrad6)"
		fill-opacity="0.000"
		stroke-opacity="1.0"
		fill-rule="nonzero"
		stroke-width="7.2"
		stroke-linejoin="round"
		stroke-linecap="round"
		d="M149.16,402.08C161.02,402.08,170.64,411.94,170.64,424.11C170.64,436.29,161.02,446.15,149.16,446.15C137.30,446.15,127.69,436.29,127.69,424.11C127.69,411.94,137.30,402.08,149.16,402.08z"/>
	<path
		transform = "rotate(-0.00 295.54 420.93)"
		fill="#000000"
		stroke="url(#stkGrad7)"
		fill-opacity="0.000"
		stroke-opacity="1.0"
		fill-rule="nonzero"
		stroke-width="7.2"
		stroke-linejoin="round"
		stroke-linecap="round"
		d="M295.54,396.29C308.97,396.29,319.85,407.32,319.85,420.93C319.85,434.53,308.97,445.57,295.54,445.57C282.12,445.57,271.24,434.53,271.24,420.93C271.24,407.32,282.12,396.29,295.54,396.29z"/>
	<path
		transform = "rotate(-189.76 69.41 572.91)"
		fill="#000000"
		stroke="url(#stkGrad8)"
		fill-opacity="0.000"
		stroke-opacity="1.0"
		fill-rule="nonzero"
		stroke-width="7.2"
		stroke-linejoin="round"
		stroke-linecap="round"
		d="M69.41,554.48C79.76,554.48,88.15,562.73,88.15,572.91C88.15,583.10,79.76,591.35,69.41,591.35C59.07,591.35,50.68,583.10,50.68,572.91C50.68,562.73,59.07,554.48,69.41,554.48z"/>
	<path
		transform = "rotate(-189.76 34.39 331.47)"
		fill="#000000"
		stroke="url(#stkGrad9)"
		fill-opacity="0.000"
		stroke-opacity="1.0"
		fill-rule="nonzero"
		stroke-width="7.2"
		stroke-linejoin="round"
		stroke-linecap="round"
		d="M34.39,313.03C44.74,313.03,53.12,321.29,53.12,331.47C53.12,341.65,44.74,349.91,34.39,349.91C24.04,349.91,15.65,341.65,15.65,331.47C15.65,321.29,24.04,313.03,34.39,313.03z"/>
	<path
		transform = "rotate(-273.58 236.12 544.65)"
		fill="#000000"
		stroke="url(#stkGrad10)"
		fill-opacity="0.000"
		stroke-opacity="1.0"
		fill-rule="nonzero"
		stroke-width="7.2"
		stroke-linejoin="round"
		stroke-linecap="round"
		d="M236.12,520.02C249.55,520.02,260.43,531.05,260.43,544.65C260.43,558.26,249.55,569.29,236.12,569.29C222.70,569.29,211.82,558.26,211.82,544.65C211.82,531.05,222.70,520.02,236.12,520.02z"/>
	<path
		transform = "rotate(-76.74 162.94 674.39)"
		fill="#000000"
		stroke="url(#stkGrad11)"
		fill-opacity="0.000"
		stroke-opacity="1.0"
		fill-rule="nonzero"
		stroke-width="7.2"
		stroke-linejoin="round"
		stroke-linecap="round"
		d="M162.94,650.65C176.29,650.65,187.11,661.28,187.11,674.39C187.11,687.50,176.29,698.13,162.94,698.13C149.60,698.13,138.78,687.50,138.78,674.39C138.78,661.28,149.60,650.65,162.94,650.65z"/>
	<path
		transform = "rotate(-11.52 309.59 661.55)"
		fill="#000000"
		stroke="url(#stkGrad12)"
		fill-opacity="0.000"
		stroke-opacity="1.0"
		fill-rule="nonzero"
		stroke-width="7.2"
		stroke-linejoin="round"
		stroke-linecap="round"
		d="M309.59,643.11C319.94,643.11,328.33,651.37,328.33,661.55C328.33,671.73,319.94,679.98,309.59,679.98C299.25,679.98,290.86,671.73,290.86,661.55C290.86,651.37,299.25,643.11,309.59,643.11z"/>
</svg>